<svg xmlns="http://www.w3.org/2000/svg" viewBox="0 0 48 48">
  <path fill="#4285F4" d="M24 9.5c3.54 0 6.23 1.54 7.66 2.83l5.61-5.61C33.16 3.44 28.88 1.5 24 1.5 14.98 1.5 7.47 7.48 5.05 15h7.17C13.05 10.84 18.05 9.5 24 9.5z"></path>
  <path fill="#34A853" d="M46.5 24.5c0-1.39-.14-2.72-.39-4H24v8h12.67c-.57 2.89-2.26 5.34-4.74 6.99l7.64 5.94C43.59 37.06 46.5 31.18 46.5 24.5z"></path>
  <path fill="#FBBC05" d="M12.22 28.49c-.54-1.61-.84-3.34-.84-5.14s.3-3.53.84-5.14L4.58 12.27C2.93 15.59 2 19.18 2 23.35c0 4.18.93 7.77 2.58 11.09l7.64-5.95z"></path>
  <path fill="#EA4335" d="M24 46c5.88 0 10.81-1.94 14.41-5.27l-7.64-5.94C29.57 36.84 26.94 37.5 24 37.5c-5.95 0-10.95-3.34-13.78-8.36l-7.64 5.95C7.47 40.52 14.98 46 24 46z"></path>
</svg>
